# xmcd
#
# Track frame offsets: 
#        150
#        24194
#        45971
#        67121
#        89075
#        112699
#        137635
#        162669
#        189019
#        209384
#        241447
#        261541
#        288209
#
# Disc length: 4149 seconds
#
# Revision: 0
# Processed by: cddbd v1.5.2PL0 Copyright (c) Steve Scherf et al.
# Submitted via: ExactAudioCopy v1.3
#
DISCID=b410330d
DTITLE=Demetrius Perry - Another World (Expanded Edition)
DYEAR=1990
DGENRE=Funk
TTITLE0=Another World
TTITLE1=Can-Do-Can-Do (Anything For You)
TTITLE2=Breathless
TTITLE3=Betcha Don't Know
TTITLE4=Use Me
TTITLE5=I'll Take You There
TTITLE6=Are You Lonely
TTITLE7=I'll Be True
TTITLE8=Everything A Man Could Want
TTITLE9=Use Me (K.C. Extended Version)
TTITLE10=Use Me (D.B. Radio Edit)
TTITLE11=Use Me (K.C. Dub Version)
TTITLE12=Use Me (K.C. Instrumental)
EXTD=
EXTT0=
EXTT1=
EXTT2=
EXTT3=
EXTT4=
EXTT5=
EXTT6=
EXTT7=
EXTT8=
EXTT9=
EXTT10=
EXTT11=
EXTT12=
PLAYORDER=
